<svg id="svg" version="1.1" xmlns="http://www.w3.org/2000/svg" xmlns:xlink="http://www.w3.org/1999/xlink" width="400" height="400" viewBox="0, 0, 400,400"><g id="svgg"><path id="path0" d="M195.000 24.320 C 194.931 24.383,193.469 24.504,191.750 24.587 C 183.103 25.006,175.411 25.966,167.500 27.616 C 146.769 31.938,131.909 41.782,122.577 57.376 C 121.323 59.471,118.804 65.308,117.974 68.043 C 116.589 72.604,116.157 74.597,114.979 81.875 C 114.536 84.611,114.226 91.265,114.116 100.375 C 114.057 105.325,113.959 111.850,113.900 114.875 C 113.331 143.777,113.225 194.017,113.598 258.875 C 113.709 278.262,113.797 294.913,113.793 295.875 C 113.719 313.920,113.795 320.197,114.113 322.375 C 114.173 322.788,114.347 323.913,114.500 324.875 C 114.653 325.837,114.843 327.106,114.922 327.693 C 115.001 328.281,115.164 328.822,115.283 328.895 C 115.402 328.969,115.500 329.332,115.501 329.702 C 115.501 330.072,115.882 331.614,116.348 333.128 C 120.998 348.261,131.424 359.046,147.750 365.615 C 148.369 365.864,149.213 366.207,149.625 366.377 C 151.755 367.257,159.959 369.679,161.312 369.828 C 161.785 369.880,162.292 369.996,162.438 370.086 C 162.724 370.263,168.028 371.234,169.559 371.390 C 170.072 371.442,171.535 371.652,172.809 371.855 C 174.083 372.059,176.194 372.292,177.500 372.373 C 178.806 372.454,180.719 372.623,181.750 372.748 C 182.781 372.872,185.088 373.050,186.875 373.142 C 188.662 373.234,190.519 373.342,191.000 373.382 C 199.227 374.066,214.240 373.646,222.250 372.508 C 226.821 371.859,230.970 371.197,231.750 370.993 C 232.231 370.867,233.581 370.525,234.750 370.234 C 235.919 369.944,237.269 369.597,237.750 369.464 C 238.231 369.330,239.045 369.115,239.558 368.986 C 240.072 368.856,241.590 368.315,242.933 367.783 C 244.276 367.252,245.825 366.674,246.375 366.498 C 247.973 365.989,252.828 363.695,255.778 362.055 C 256.519 361.643,257.609 361.040,258.201 360.715 C 258.794 360.391,259.469 360.012,259.701 359.875 C 260.444 359.437,263.120 357.648,263.250 357.503 C 263.319 357.426,263.712 357.150,264.125 356.888 C 273.431 350.991,282.142 337.828,284.484 326.125 C 285.938 318.854,285.845 323.024,285.875 263.993 C 285.890 234.220,285.979 209.736,286.074 209.582 C 286.372 209.100,286.304 173.235,286.003 171.859 C 285.265 168.495,282.967 164.283,279.809 160.509 C 271.867 151.019,258.718 144.203,244.375 142.142 C 242.863 141.925,241.231 141.689,240.750 141.618 C 237.555 141.146,216.455 140.959,211.625 141.359 C 199.335 142.378,193.329 144.350,188.917 148.817 C 188.115 149.629,187.429 150.255,187.391 150.209 C 187.317 150.117,187.655 131.209,187.852 124.375 C 187.920 122.037,188.047 113.938,188.135 106.375 C 188.318 90.703,188.208 91.483,190.514 89.410 C 196.455 84.068,214.121 87.028,212.910 93.161 C 212.833 93.554,212.696 98.487,212.605 104.125 C 212.515 109.763,212.401 114.444,212.353 114.527 C 212.115 114.936,212.240 126.340,212.485 126.585 C 212.836 126.936,211.368 126.908,239.125 127.093 C 252.463 127.183,268.451 127.317,274.655 127.393 C 284.351 127.511,285.954 127.480,286.073 127.169 C 286.150 126.971,286.225 124.415,286.240 121.490 C 286.256 118.566,286.309 116.106,286.358 116.024 C 287.239 114.571,286.603 80.370,285.603 75.394 C 285.407 74.421,285.127 73.006,284.981 72.250 C 284.659 70.588,283.441 66.347,282.790 64.625 C 282.341 63.434,282.114 62.881,281.340 61.087 C 281.153 60.654,281.000 60.176,281.000 60.025 C 281.000 59.874,280.887 59.750,280.750 59.750 C 280.613 59.750,280.500 59.627,280.500 59.476 C 280.500 59.232,279.074 56.563,277.730 54.292 C 276.065 51.478,268.250 42.500,267.466 42.500 C 267.360 42.500,267.006 42.247,266.680 41.938 C 264.378 39.752,258.413 35.982,254.000 33.923 C 240.240 27.503,225.498 24.627,204.875 24.340 C 199.512 24.265,195.069 24.256,195.000 24.320 M244.275 207.037 C 248.834 208.403,250.526 213.235,250.392 224.500 C 250.347 228.281,250.297 232.623,250.280 234.149 L 250.250 236.923 246.563 237.598 C 244.534 237.970,242.425 238.383,241.875 238.518 C 240.946 238.744,232.855 240.243,229.764 240.761 C 229.016 240.887,226.935 241.279,225.139 241.633 C 213.758 243.876,214.488 242.626,214.495 259.866 C 214.501 274.472,214.632 273.927,211.067 274.151 C 207.477 274.377,201.494 276.057,199.198 277.485 C 198.521 277.906,197.863 278.250,197.736 278.250 C 197.267 278.250,194.291 281.419,193.915 282.318 C 193.571 283.140,193.533 286.283,193.576 309.738 L 193.625 336.230 192.323 336.867 C 190.610 337.706,188.606 338.182,186.000 338.369 C 184.377 338.485,183.698 338.650,183.125 339.066 C 182.411 339.585,182.157 339.608,177.875 339.547 C 173.063 339.479,173.187 339.511,172.367 338.123 C 172.226 337.883,171.832 337.659,171.492 337.625 C 171.153 337.592,170.734 337.549,170.563 337.532 C 170.371 337.512,170.250 337.122,170.250 336.527 C 170.250 335.470,169.987 335.250,168.722 335.250 C 167.502 335.250,167.550 334.639,168.991 331.847 L 170.317 329.277 170.150 299.576 C 170.059 283.240,169.928 259.356,169.860 246.500 L 169.736 223.125 168.743 222.243 L 167.750 221.361 167.750 219.431 L 167.750 217.500 168.855 217.500 C 170.092 217.500,170.061 217.555,170.374 214.712 L 170.530 213.299 171.814 212.746 C 174.020 211.797,175.373 211.488,180.500 210.763 C 182.379 210.497,183.546 210.414,189.663 210.116 L 192.951 209.956 193.132 210.783 C 193.408 212.040,194.621 214.275,195.534 215.208 C 198.138 217.869,202.935 218.289,208.875 216.374 C 209.425 216.197,210.719 215.805,211.750 215.504 C 212.781 215.202,214.075 214.756,214.625 214.511 C 215.175 214.266,215.906 213.987,216.250 213.892 C 216.594 213.797,217.100 213.623,217.375 213.506 C 217.650 213.389,218.550 213.042,219.375 212.735 C 220.200 212.427,221.213 212.033,221.625 211.860 C 222.037 211.686,222.994 211.347,223.750 211.106 C 224.506 210.865,225.347 210.518,225.618 210.334 C 225.889 210.150,226.283 209.996,226.493 209.992 C 226.703 209.987,227.325 209.766,227.875 209.500 C 228.425 209.234,229.103 209.013,229.382 209.008 C 229.661 209.004,230.146 208.820,230.461 208.600 C 230.775 208.379,231.099 208.266,231.181 208.347 C 231.262 208.429,231.452 208.398,231.602 208.278 C 231.984 207.975,234.946 207.265,236.543 207.094 C 237.275 207.016,237.922 206.907,237.979 206.851 C 238.217 206.620,243.392 206.773,244.275 207.037 M205.438 245.672 C 204.812 245.836,204.896 246.172,205.688 246.676 C 206.066 246.917,206.431 247.172,206.500 247.245 C 206.569 247.317,206.906 247.521,207.250 247.698 C 209.037 248.618,211.250 251.498,211.250 252.904 C 211.250 253.647,211.191 253.646,209.231 252.841 C 204.190 250.774,201.147 250.971,197.000 253.631 C 194.260 255.390,194.376 255.088,194.370 260.464 C 194.358 272.288,193.783 271.590,203.500 271.540 C 210.583 271.504,211.574 271.298,212.404 269.695 C 212.905 268.724,212.956 250.243,212.460 249.104 C 211.259 246.347,208.330 244.916,205.438 245.672 " stroke="none" fill="#edecee" fill-rule="evenodd"></path><path id="path1" d="M0.000 200.000 L 0.000 400.000 200.000 400.000 L 400.000 400.000 400.000 200.000 L 400.000 0.000 200.000 0.000 L 0.000 0.000 0.000 200.000 M213.802 24.510 C 221.385 24.941,228.528 25.896,234.625 27.294 C 238.412 28.162,238.571 28.201,240.387 28.708 C 246.469 30.405,255.154 34.016,259.375 36.602 C 261.314 37.789,261.311 37.787,263.358 39.250 C 266.102 41.209,266.567 41.563,267.140 42.125 C 267.420 42.400,268.414 43.300,269.350 44.124 C 270.285 44.949,271.852 46.580,272.832 47.749 C 273.812 48.918,274.869 50.155,275.182 50.497 C 275.494 50.840,275.750 51.197,275.750 51.292 C 275.750 51.387,275.896 51.613,276.074 51.795 C 277.004 52.741,281.250 59.912,281.250 60.534 C 281.250 60.657,281.346 60.952,281.463 61.191 C 281.812 61.901,282.395 63.273,283.217 65.319 C 283.546 66.140,285.390 73.237,285.602 74.500 C 286.715 81.142,286.827 82.963,286.794 94.000 C 286.757 106.859,286.359 127.224,286.141 127.442 C 285.943 127.641,267.860 127.563,221.953 127.166 C 214.743 127.103,212.694 127.015,212.376 126.751 C 212.023 126.458,211.989 125.879,212.107 122.146 C 212.180 119.797,212.299 114.894,212.371 111.250 C 212.442 107.606,212.571 101.805,212.657 98.357 L 212.813 92.090 212.176 91.080 C 211.425 89.892,209.212 88.199,208.000 87.886 C 207.931 87.868,207.481 87.725,207.000 87.567 C 201.376 85.728,192.920 86.943,190.070 90.000 C 188.299 91.900,188.475 89.606,188.124 115.250 C 188.038 121.506,187.927 127.300,187.876 128.125 C 187.826 128.950,187.713 134.217,187.625 139.830 L 187.466 150.036 188.795 148.676 C 192.373 145.019,197.747 142.960,207.000 141.700 C 211.306 141.113,233.855 140.834,238.750 141.306 C 246.558 142.059,252.939 143.500,259.000 145.879 C 263.611 147.689,271.505 152.161,273.276 153.966 C 273.496 154.191,274.161 154.769,274.753 155.250 C 276.020 156.280,278.816 159.154,280.102 160.750 C 282.079 163.201,282.430 163.689,283.456 165.406 C 286.472 170.457,286.580 171.259,286.400 187.274 C 286.318 194.617,286.196 225.994,286.130 257.000 C 286.064 288.006,285.956 314.781,285.890 316.500 C 285.524 326.023,282.446 335.683,277.288 343.500 C 275.710 345.892,270.688 351.995,270.291 352.004 C 270.200 352.006,269.216 352.821,268.106 353.816 C 265.844 355.842,264.318 357.078,263.903 357.220 C 263.750 357.272,263.427 357.487,263.186 357.698 C 262.944 357.908,262.536 358.203,262.280 358.353 C 262.023 358.503,261.191 359.039,260.430 359.544 C 257.381 361.571,249.526 365.525,246.077 366.770 C 245.278 367.058,244.287 367.443,243.875 367.626 C 243.463 367.809,242.338 368.200,241.375 368.496 C 240.412 368.791,239.175 369.186,238.625 369.374 C 236.482 370.105,228.598 371.884,226.500 372.109 C 225.744 372.190,224.394 372.372,223.500 372.512 C 222.606 372.653,220.806 372.879,219.500 373.015 C 218.194 373.150,216.787 373.312,216.375 373.373 C 212.585 373.939,194.672 373.943,188.000 373.379 C 187.381 373.326,185.188 373.159,183.125 373.006 C 178.235 372.644,171.091 371.824,167.750 371.241 C 163.001 370.413,158.234 369.304,155.000 368.274 C 154.106 367.989,153.178 367.755,152.938 367.753 C 152.697 367.751,152.500 367.637,152.500 367.500 C 152.500 367.363,152.303 367.250,152.063 367.250 C 151.573 367.250,149.371 366.454,149.095 366.178 C 148.997 366.080,148.720 366.000,148.479 366.000 C 148.238 366.000,147.722 365.833,147.333 365.629 C 146.943 365.425,145.106 364.544,143.250 363.672 C 135.739 360.144,127.442 353.711,124.170 348.879 C 120.539 343.515,119.708 342.062,117.808 337.750 C 117.208 336.389,115.675 331.609,115.363 330.125 C 115.280 329.731,114.521 325.756,114.264 324.375 C 113.808 321.916,113.706 316.157,113.629 288.584 C 113.586 273.207,113.475 249.037,113.382 234.875 C 113.079 188.407,113.193 136.096,113.623 124.375 C 113.689 122.588,113.803 114.656,113.877 106.750 C 114.025 90.935,114.396 83.445,115.258 78.875 C 115.388 78.188,115.662 76.725,115.867 75.625 C 116.072 74.525,116.589 72.444,117.016 71.000 C 117.442 69.556,117.886 68.037,118.001 67.625 C 118.738 64.996,121.481 58.740,122.604 57.126 C 122.890 56.714,123.335 55.983,123.592 55.501 C 125.721 51.510,133.109 43.278,136.785 40.801 C 149.434 32.276,158.241 28.910,175.500 26.004 C 177.418 25.681,183.136 25.040,186.935 24.722 C 189.983 24.467,206.034 24.060,208.125 24.185 C 208.675 24.217,211.230 24.364,213.802 24.510 M238.250 207.047 C 235.434 207.315,232.194 208.083,229.125 209.209 C 225.671 210.477,219.787 212.693,219.125 212.976 C 218.021 213.448,216.591 213.980,216.000 214.138 C 215.656 214.230,215.037 214.448,214.625 214.622 C 213.025 215.298,211.350 215.865,210.799 215.917 C 210.483 215.947,209.428 216.258,208.456 216.607 C 207.484 216.956,206.590 217.181,206.469 217.106 C 206.349 217.031,206.109 217.061,205.938 217.171 C 205.766 217.281,205.400 217.392,205.125 217.417 C 204.850 217.442,203.769 217.542,202.723 217.640 C 197.936 218.085,194.023 215.362,193.003 210.875 C 192.910 210.463,192.717 210.148,192.575 210.176 C 192.371 210.217,187.088 210.455,184.375 210.546 C 179.066 210.724,171.927 212.258,170.955 213.430 C 170.777 213.643,170.513 214.675,170.368 215.722 C 170.085 217.761,170.187 217.656,168.438 217.723 C 167.261 217.769,167.525 221.990,168.705 222.002 C 168.799 222.003,169.129 222.377,169.440 222.833 L 170.005 223.663 169.998 242.269 C 169.994 252.502,170.050 265.769,170.123 271.750 C 170.196 277.731,170.304 293.097,170.363 305.897 L 170.470 329.169 169.110 331.871 C 167.624 334.822,167.623 335.250,169.106 335.250 C 170.119 335.250,170.500 335.640,170.500 336.675 C 170.500 337.407,170.577 337.500,171.182 337.500 C 171.659 337.500,172.139 337.801,172.778 338.500 L 173.692 339.500 178.057 339.500 C 182.050 339.500,182.460 339.459,182.859 339.018 C 183.325 338.502,184.082 338.335,186.933 338.117 C 188.938 337.964,190.256 337.619,192.125 336.760 L 193.375 336.185 193.413 309.620 C 193.456 279.531,193.259 282.230,195.576 279.973 C 198.699 276.931,204.777 274.570,210.719 274.090 C 214.561 273.780,214.486 274.092,214.411 258.670 C 214.380 252.507,214.444 247.409,214.553 247.342 C 214.661 247.275,214.750 246.996,214.750 246.722 C 214.750 243.897,216.741 243.035,228.000 240.988 C 231.094 240.425,235.256 239.645,237.250 239.253 C 241.528 238.412,247.435 237.322,248.943 237.095 C 249.530 237.007,250.056 236.862,250.110 236.774 C 250.297 236.472,250.320 217.628,250.135 216.375 C 249.620 212.884,248.512 210.524,246.544 208.722 C 244.483 206.834,243.200 206.575,238.250 207.047 M209.741 245.996 C 212.819 247.566,212.978 248.227,212.980 259.500 C 212.982 272.432,213.541 271.757,202.851 271.740 C 196.766 271.730,196.129 271.616,195.000 270.334 L 194.375 269.625 194.298 262.598 L 194.222 255.570 195.475 254.521 C 199.317 251.304,203.055 250.558,207.500 252.121 C 210.941 253.332,211.250 253.398,211.250 252.933 C 211.250 251.437,207.162 247.000,205.784 247.000 C 205.505 247.000,204.640 246.027,204.787 245.879 C 205.480 245.186,208.284 245.252,209.741 245.996 " stroke="none" fill="#060505" fill-rule="evenodd"></path><path id="path2" d="M193.313 24.422 C 193.553 24.485,193.947 24.485,194.188 24.422 C 194.428 24.359,194.231 24.308,193.750 24.308 C 193.269 24.308,193.072 24.359,193.313 24.422 M185.313 24.922 C 185.553 24.985,185.947 24.985,186.188 24.922 C 186.428 24.859,186.231 24.808,185.750 24.808 C 185.269 24.808,185.072 24.859,185.313 24.922 M270.500 45.328 C 270.500 45.371,270.866 45.737,271.313 46.141 L 272.125 46.875 271.391 46.063 C 270.706 45.305,270.500 45.135,270.500 45.328 M286.822 93.875 C 286.823 94.563,286.872 94.814,286.929 94.434 C 286.987 94.054,286.985 93.492,286.926 93.184 C 286.867 92.877,286.820 93.188,286.822 93.875 M188.313 98.125 C 188.316 98.675,188.367 98.871,188.427 98.560 C 188.487 98.249,188.484 97.799,188.422 97.560 C 188.359 97.321,188.310 97.575,188.313 98.125 M212.558 99.500 C 212.558 99.981,212.609 100.178,212.672 99.938 C 212.735 99.697,212.735 99.303,212.672 99.063 C 212.609 98.822,212.558 99.019,212.558 99.500 M286.580 108.500 C 286.580 109.394,286.625 109.759,286.681 109.313 C 286.736 108.866,286.736 108.134,286.681 107.688 C 286.625 107.241,286.580 107.606,286.580 108.500 M188.091 113.375 C 188.092 114.750,188.134 115.281,188.185 114.554 C 188.235 113.828,188.235 112.703,188.183 112.054 C 188.132 111.406,188.091 112.000,188.091 113.375 M113.558 125.000 C 113.558 125.481,113.609 125.678,113.672 125.438 C 113.735 125.197,113.735 124.803,113.672 124.563 C 113.609 124.322,113.558 124.519,113.558 125.000 M216.940 127.177 C 217.251 127.237,217.701 127.234,217.940 127.172 C 218.179 127.109,217.925 127.060,217.375 127.063 C 216.825 127.066,216.629 127.117,216.940 127.177 M222.313 127.172 C 222.553 127.235,222.947 127.235,223.188 127.172 C 223.428 127.109,223.231 127.058,222.750 127.058 C 222.269 127.058,222.072 127.109,222.313 127.172 M245.440 127.427 C 245.751 127.487,246.201 127.484,246.440 127.422 C 246.679 127.359,246.425 127.310,245.875 127.313 C 245.325 127.316,245.129 127.367,245.440 127.427 M270.813 127.422 C 271.053 127.485,271.447 127.485,271.688 127.422 C 271.928 127.359,271.731 127.308,271.250 127.308 C 270.769 127.308,270.572 127.359,270.813 127.422 M281.566 127.679 C 281.946 127.737,282.508 127.735,282.816 127.676 C 283.123 127.617,282.813 127.570,282.125 127.572 C 281.438 127.573,281.186 127.622,281.566 127.679 M187.568 136.250 C 187.568 136.869,187.617 137.122,187.676 136.813 C 187.736 136.503,187.736 135.997,187.676 135.688 C 187.617 135.378,187.568 135.631,187.568 136.250 M113.336 145.875 C 113.337 146.975,113.381 147.394,113.433 146.806 C 113.486 146.218,113.485 145.318,113.432 144.806 C 113.378 144.294,113.335 144.775,113.336 145.875 M286.313 180.875 C 286.316 181.425,286.367 181.621,286.427 181.310 C 286.487 180.999,286.484 180.549,286.422 180.310 C 286.359 180.071,286.310 180.325,286.313 180.875 M113.063 182.625 C 113.066 183.175,113.117 183.371,113.177 183.060 C 113.237 182.749,113.234 182.299,113.172 182.060 C 113.109 181.821,113.060 182.075,113.063 182.625 M286.318 188.500 C 286.318 189.119,286.367 189.372,286.426 189.063 C 286.486 188.753,286.486 188.247,286.426 187.938 C 286.367 187.628,286.318 187.881,286.318 188.500 M286.330 191.750 C 286.330 192.644,286.375 193.009,286.431 192.563 C 286.486 192.116,286.486 191.384,286.431 190.938 C 286.375 190.491,286.330 190.856,286.330 191.750 M286.063 215.375 C 286.066 215.925,286.117 216.121,286.177 215.810 C 286.237 215.499,286.234 215.049,286.172 214.810 C 286.109 214.571,286.060 214.825,286.063 215.375 M286.084 218.250 C 286.084 219.281,286.128 219.703,286.182 219.188 C 286.236 218.672,286.236 217.828,286.182 217.313 C 286.128 216.797,286.084 217.219,286.084 218.250 M250.313 220.375 C 250.316 220.925,250.367 221.121,250.427 220.810 C 250.487 220.499,250.484 220.049,250.422 219.810 C 250.359 219.571,250.310 219.825,250.313 220.375 M285.836 258.875 C 285.837 259.975,285.881 260.394,285.933 259.806 C 285.986 259.218,285.985 258.318,285.932 257.806 C 285.878 257.294,285.835 257.775,285.836 258.875 M212.818 263.250 C 212.818 263.869,212.867 264.122,212.926 263.813 C 212.986 263.503,212.986 262.997,212.926 262.688 C 212.867 262.378,212.818 262.631,212.818 263.250 M170.063 268.375 C 170.066 268.925,170.117 269.121,170.177 268.810 C 170.237 268.499,170.234 268.049,170.172 267.810 C 170.109 267.571,170.060 267.825,170.063 268.375 M204.440 271.677 C 204.751 271.737,205.201 271.734,205.440 271.672 C 205.679 271.609,205.425 271.560,204.875 271.563 C 204.325 271.566,204.129 271.617,204.440 271.677 M113.563 274.375 C 113.566 274.925,113.617 275.121,113.677 274.810 C 113.737 274.499,113.734 274.049,113.672 273.810 C 113.609 273.571,113.560 273.825,113.563 274.375 M170.086 277.625 C 170.087 278.725,170.131 279.144,170.183 278.556 C 170.236 277.968,170.235 277.068,170.182 276.556 C 170.128 276.044,170.085 276.525,170.086 277.625 M113.558 313.000 C 113.558 313.481,113.609 313.678,113.672 313.438 C 113.735 313.197,113.735 312.803,113.672 312.563 C 113.609 312.322,113.558 312.519,113.558 313.000 M170.318 321.000 C 170.318 321.619,170.367 321.872,170.426 321.563 C 170.486 321.253,170.486 320.747,170.426 320.438 C 170.367 320.128,170.318 320.381,170.318 321.000 M193.330 323.500 C 193.330 324.394,193.375 324.759,193.431 324.313 C 193.486 323.866,193.486 323.134,193.431 322.688 C 193.375 322.241,193.330 322.606,193.330 323.500 M193.325 331.250 C 193.325 332.006,193.372 332.316,193.429 331.938 C 193.486 331.559,193.486 330.941,193.429 330.563 C 193.372 330.184,193.325 330.494,193.325 331.250 M270.859 351.313 L 270.125 352.125 270.938 351.391 C 271.695 350.706,271.865 350.500,271.672 350.500 C 271.629 350.500,271.263 350.866,270.859 351.313 M178.938 372.676 C 179.247 372.736,179.753 372.736,180.063 372.676 C 180.372 372.617,180.119 372.568,179.500 372.568 C 178.881 372.568,178.628 372.617,178.938 372.676 M206.190 373.927 C 206.501 373.987,206.951 373.984,207.190 373.922 C 207.429 373.859,207.175 373.810,206.625 373.813 C 206.075 373.816,205.879 373.867,206.190 373.927 " stroke="none" fill="#5e5d62" fill-rule="evenodd"></path><path id="path3" d="M286.818 91.000 C 286.818 91.619,286.867 91.872,286.926 91.563 C 286.986 91.253,286.986 90.747,286.926 90.438 C 286.867 90.128,286.818 90.381,286.818 91.000 " stroke="none" fill="#777686" fill-rule="evenodd"></path><path id="path4" d="M199.063 86.672 C 199.303 86.735,199.697 86.735,199.938 86.672 C 200.178 86.609,199.981 86.558,199.500 86.558 C 199.019 86.558,198.822 86.609,199.063 86.672 M114.313 89.125 C 114.316 89.675,114.367 89.871,114.427 89.560 C 114.487 89.249,114.484 88.799,114.422 88.560 C 114.359 88.321,114.310 88.575,114.313 89.125 M114.058 98.750 C 114.058 99.231,114.109 99.428,114.172 99.188 C 114.235 98.947,114.235 98.553,114.172 98.313 C 114.109 98.072,114.058 98.269,114.058 98.750 M286.563 101.125 C 286.566 101.675,286.617 101.871,286.677 101.560 C 286.737 101.249,286.734 100.799,286.672 100.560 C 286.609 100.321,286.560 100.575,286.563 101.125 M114.058 101.750 C 114.058 102.231,114.109 102.428,114.172 102.188 C 114.235 101.947,114.235 101.553,114.172 101.313 C 114.109 101.072,114.058 101.269,114.058 101.750 M212.558 103.000 C 212.558 103.481,212.609 103.678,212.672 103.438 C 212.735 103.197,212.735 102.803,212.672 102.563 C 212.609 102.322,212.558 102.519,212.558 103.000 M286.558 104.500 C 286.558 104.981,286.609 105.178,286.672 104.938 C 286.735 104.697,286.735 104.303,286.672 104.063 C 286.609 103.822,286.558 104.019,286.558 104.500 M113.844 113.125 C 113.844 114.638,113.885 115.224,113.935 114.428 C 113.985 113.633,113.984 112.395,113.934 111.678 C 113.884 110.962,113.843 111.612,113.844 113.125 M212.318 113.500 C 212.318 114.119,212.367 114.372,212.426 114.063 C 212.486 113.753,212.486 113.247,212.426 112.938 C 212.367 112.628,212.318 112.881,212.318 113.500 M286.325 117.250 C 286.325 118.006,286.372 118.316,286.429 117.938 C 286.486 117.559,286.486 116.941,286.429 116.563 C 286.372 116.184,286.325 116.494,286.325 117.250 M286.318 120.500 C 286.318 121.119,286.367 121.372,286.426 121.063 C 286.486 120.753,286.486 120.247,286.426 119.938 C 286.367 119.628,286.318 119.881,286.318 120.500 M113.575 127.000 C 113.575 127.756,113.622 128.066,113.679 127.688 C 113.736 127.309,113.736 126.691,113.679 126.313 C 113.622 125.934,113.575 126.244,113.575 127.000 M228.313 127.179 C 228.691 127.236,229.309 127.236,229.688 127.179 C 230.066 127.122,229.756 127.075,229.000 127.075 C 228.244 127.075,227.934 127.122,228.313 127.179 M232.938 127.176 C 233.247 127.236,233.753 127.236,234.063 127.176 C 234.372 127.117,234.119 127.068,233.500 127.068 C 232.881 127.068,232.628 127.117,232.938 127.176 M238.688 127.181 C 239.134 127.236,239.866 127.236,240.313 127.181 C 240.759 127.125,240.394 127.080,239.500 127.080 C 238.606 127.080,238.241 127.125,238.688 127.181 M262.813 127.429 C 263.191 127.486,263.809 127.486,264.188 127.429 C 264.566 127.372,264.256 127.325,263.500 127.325 C 262.744 127.325,262.434 127.372,262.813 127.429 M265.563 127.429 C 265.941 127.486,266.559 127.486,266.938 127.429 C 267.316 127.372,267.006 127.325,266.250 127.325 C 265.494 127.325,265.184 127.372,265.563 127.429 M273.940 127.427 C 274.251 127.487,274.701 127.484,274.940 127.422 C 275.179 127.359,274.925 127.310,274.375 127.313 C 273.825 127.316,273.629 127.367,273.940 127.427 M230.813 141.172 C 231.053 141.235,231.447 141.235,231.688 141.172 C 231.928 141.109,231.731 141.058,231.250 141.058 C 230.769 141.058,230.572 141.109,230.813 141.172 M187.313 148.875 C 187.316 149.425,187.367 149.621,187.427 149.310 C 187.487 148.999,187.484 148.549,187.422 148.310 C 187.359 148.071,187.310 148.325,187.313 148.875 M113.308 149.000 C 113.308 149.481,113.359 149.678,113.422 149.438 C 113.485 149.197,113.485 148.803,113.422 148.563 C 113.359 148.322,113.308 148.519,113.308 149.000 M286.330 175.750 C 286.330 176.644,286.375 177.009,286.431 176.563 C 286.486 176.116,286.486 175.384,286.431 174.938 C 286.375 174.491,286.330 174.856,286.330 175.750 M113.308 202.000 C 113.308 202.481,113.359 202.678,113.422 202.438 C 113.485 202.197,113.485 201.803,113.422 201.563 C 113.359 201.322,113.308 201.519,113.308 202.000 M238.313 206.922 C 238.553 206.985,238.947 206.985,239.188 206.922 C 239.428 206.859,239.231 206.808,238.750 206.808 C 238.269 206.808,238.072 206.859,238.313 206.922 M286.063 210.375 C 286.066 210.925,286.117 211.121,286.177 210.810 C 286.237 210.499,286.234 210.049,286.172 209.810 C 286.109 209.571,286.060 209.825,286.063 210.375 M286.068 212.500 C 286.068 213.119,286.117 213.372,286.176 213.063 C 286.236 212.753,286.236 212.247,286.176 211.938 C 286.117 211.628,286.068 211.881,286.068 212.500 M113.325 213.250 C 113.325 214.006,113.372 214.316,113.429 213.938 C 113.486 213.559,113.486 212.941,113.429 212.563 C 113.372 212.184,113.325 212.494,113.325 213.250 M113.308 220.500 C 113.308 220.981,113.359 221.178,113.422 220.938 C 113.485 220.697,113.485 220.303,113.422 220.063 C 113.359 219.822,113.308 220.019,113.308 220.500 M113.330 225.000 C 113.330 225.894,113.375 226.259,113.431 225.813 C 113.486 225.366,113.486 224.634,113.431 224.188 C 113.375 223.741,113.330 224.106,113.330 225.000 M169.808 224.500 C 169.808 224.981,169.859 225.178,169.922 224.938 C 169.985 224.697,169.985 224.303,169.922 224.063 C 169.859 223.822,169.808 224.019,169.808 224.500 M169.859 233.375 C 169.859 237.088,169.894 238.641,169.937 236.827 C 169.979 235.014,169.980 231.976,169.937 230.077 C 169.894 228.179,169.860 229.662,169.859 233.375 M113.313 228.375 C 113.316 228.925,113.367 229.121,113.427 228.810 C 113.487 228.499,113.484 228.049,113.422 227.810 C 113.359 227.571,113.310 227.825,113.313 228.375 M250.313 228.875 C 250.316 229.425,250.367 229.621,250.427 229.310 C 250.487 228.999,250.484 228.549,250.422 228.310 C 250.359 228.071,250.310 228.325,250.313 228.875 M169.813 241.625 C 169.816 242.175,169.867 242.371,169.927 242.060 C 169.987 241.749,169.984 241.299,169.922 241.060 C 169.859 240.821,169.810 241.075,169.813 241.625 M285.813 243.125 C 285.816 243.675,285.867 243.871,285.927 243.560 C 285.987 243.249,285.984 242.799,285.922 242.560 C 285.859 242.321,285.810 242.575,285.813 243.125 M202.690 251.427 C 203.001 251.487,203.451 251.484,203.690 251.422 C 203.929 251.359,203.675 251.310,203.125 251.313 C 202.575 251.316,202.379 251.367,202.690 251.427 M285.818 254.500 C 285.818 255.119,285.867 255.372,285.926 255.063 C 285.986 254.753,285.986 254.247,285.926 253.938 C 285.867 253.628,285.818 253.881,285.818 254.500 M212.808 259.000 C 212.808 259.481,212.859 259.678,212.922 259.438 C 212.985 259.197,212.985 258.803,212.922 258.563 C 212.859 258.322,212.808 258.519,212.808 259.000 M285.818 263.000 C 285.818 263.619,285.867 263.872,285.926 263.563 C 285.986 263.253,285.986 262.747,285.926 262.438 C 285.867 262.128,285.818 262.381,285.818 263.000 M113.563 263.875 C 113.566 264.425,113.617 264.621,113.677 264.310 C 113.737 263.999,113.734 263.549,113.672 263.310 C 113.609 263.071,113.560 263.325,113.563 263.875 M194.325 266.750 C 194.325 267.506,194.372 267.816,194.429 267.438 C 194.486 267.059,194.486 266.441,194.429 266.063 C 194.372 265.684,194.325 265.994,194.325 266.750 M206.313 271.672 C 206.553 271.735,206.947 271.735,207.188 271.672 C 207.428 271.609,207.231 271.558,206.750 271.558 C 206.269 271.558,206.072 271.609,206.313 271.672 M285.808 272.750 C 285.808 273.231,285.859 273.428,285.922 273.188 C 285.985 272.947,285.985 272.553,285.922 272.313 C 285.859 272.072,285.808 272.269,285.808 272.750 M285.837 276.000 C 285.837 277.169,285.880 277.647,285.933 277.063 C 285.986 276.478,285.986 275.522,285.933 274.938 C 285.880 274.353,285.837 274.831,285.837 276.000 M170.082 282.375 C 170.083 283.337,170.128 283.701,170.182 283.182 C 170.237 282.663,170.236 281.876,170.180 281.432 C 170.125 280.988,170.081 281.413,170.082 282.375 M170.089 292.625 C 170.088 293.863,170.130 294.400,170.183 293.820 C 170.235 293.240,170.236 292.227,170.184 291.570 C 170.132 290.913,170.090 291.387,170.089 292.625 M170.313 314.625 C 170.316 315.175,170.367 315.371,170.427 315.060 C 170.487 314.749,170.484 314.299,170.422 314.060 C 170.359 313.821,170.310 314.075,170.313 314.625 M170.330 317.500 C 170.330 318.394,170.375 318.759,170.431 318.313 C 170.486 317.866,170.486 317.134,170.431 316.688 C 170.375 316.241,170.330 316.606,170.330 317.500 M180.313 339.672 C 180.553 339.735,180.947 339.735,181.188 339.672 C 181.428 339.609,181.231 339.558,180.750 339.558 C 180.269 339.558,180.072 339.609,180.313 339.672 M213.250 373.503 C 212.986 373.676,213.134 373.702,213.750 373.589 C 214.828 373.391,215.032 373.249,214.229 373.254 C 213.897 373.256,213.456 373.368,213.250 373.503 " stroke="none" fill="#847c88" fill-rule="evenodd"></path></g></svg>